<svg width="24" height="24" viewBox="0 0 24 24" fill="none" xmlns="http://www.w3.org/2000/svg">
<g id="Basil Icons/Solid/Solid/Status/Star">
<path id="Icon" d="M12.8649 2.99616C12.4796 2.33201 11.5204 2.33201 11.1351 2.99616L8.42101 7.67347C8.23064 8.00155 7.90159 8.22544 7.52653 8.28209L2.44021 9.05032C1.58593 9.17935 1.28627 10.258 1.95158 10.8092L5.74067 13.9484C6.09141 14.239 6.25633 14.6973 6.17113 15.1448L5.17996 20.3499C5.02327 21.1727 5.88706 21.812 6.62821 21.4218L11.4176 18.9C11.7821 18.708 12.2178 18.708 12.5824 18.9L17.3718 21.4218C18.1129 21.812 18.9767 21.1727 18.82 20.3499L17.8289 15.1448C17.7437 14.6973 17.9086 14.239 18.2593 13.9484L22.0484 10.8092C22.7137 10.258 22.4141 9.17935 21.5598 9.05032L16.4735 8.28209C16.0984 8.22544 15.7694 8.00155 15.579 7.67347L12.8649 2.99616Z" fill="#FF8800"/>
</g>
</svg>
